<svg xmlns="http://www.w3.org/2000/svg" width="161" height="20" fill="none"><g fill="#F7F7F7" clip-path="url(#a)"><path d="M82.918 1.406c.012-.079.072-.079.084 0 .056.384.176.795.422 1.041s.657.366 1.04.422c.08.012.08.072 0 .083-.383.057-.794.176-1.04.422-.246.247-.366.658-.422 1.042-.012.078-.072.078-.084 0-.056-.384-.175-.795-.422-1.042-.246-.246-.657-.365-1.04-.422-.08-.011-.08-.071 0-.083.383-.056.794-.176 1.04-.422.247-.246.366-.657.422-1.041M85.364.497c.006-.041.038-.041.044 0 .03.2.092.415.22.544.129.129.344.19.544.22.041.006.041.038 0 .044-.2.03-.415.092-.544.22-.128.13-.19.344-.22.545-.006.04-.038.04-.044 0-.03-.2-.092-.416-.22-.544-.129-.13-.344-.191-.544-.221-.041-.006-.041-.038 0-.044.2-.03.415-.091.544-.22.128-.129.19-.344.22-.544M85.431 3.772c.004-.024.022-.024.026 0 .017.118.054.245.13.321s.203.113.322.13c.024.004.024.023 0 .026-.119.018-.246.055-.322.13-.076.077-.113.204-.13.322-.004.024-.022.024-.026 0-.017-.118-.054-.245-.13-.321s-.203-.113-.322-.13c-.024-.004-.024-.023 0-.026.119-.018.246-.055.322-.13.076-.077.113-.204.13-.322"/><path fill-rule="evenodd" d="M79.837 2.826h-.019c-4.183 0-6.88 2.146-6.88 5.467 0 3.45 2.752 5.468 7.54 5.468.808 0 1.57-.04 2.262-.102l-.75-2.798c-.57.037-1.135.056-1.658.056-1.707 0-2.918-.55-3.376-1.541h4.637l-.531-1.982h-4.253c.33-1.119 1.358-1.724 2.99-1.724q.44 0 .818.066zm12.961 10.923c1.421-.11 2.575-.514 3.427-1.18v1.009h3.377v-6.79c0-2.568-2.129-3.962-6.11-3.962-1.09 0-2.43.094-3.562.222l.73 2.725a26 26 0 0 1 2.245-.103c1.963 0 2.88.458 3.045 1.578v.11a58 58 0 0 0-3.724-.147q-.62 0-1.167.048l.607 2.265q.535-.165 1.422-.166c.752 0 2.092 0 2.88.018v.605c-.238.881-1.596 1.487-2.972 1.487q-.46 0-.821-.045zM3.633 3.743V0H0v13.578h3.633V6.734c1.12-.514 2.294-.79 3.156-.79 1.523 0 2.312.698 2.312 2.038v5.596h3.633V6.22c0-1.963-1.945-3.394-4.587-3.394-1.303 0-3.028.348-4.514.917m23.838 3.651c0-2.862-2.422-4.568-6.22-4.568-4.184 0-6.88 2.146-6.88 5.467 0 3.45 2.752 5.468 7.54 5.468 1.982 0 4.012-.238 5.094-.477l-.646-2.844c-1.34.294-2.998.477-4.594.477-1.707 0-2.918-.55-3.376-1.541h8.807c.128-.385.275-1.12.275-1.982m-3.596 0h-5.633c.33-1.119 1.358-1.724 2.99-1.724 1.597 0 2.643.679 2.643 1.724m5.252 6.184V0h3.633v13.578zm9.505-10.569H35v13.505h3.633V13.1c.991.385 2.294.66 3.688.66 3.817 0 6.367-2.128 6.367-5.468s-2.55-5.467-6.367-5.467c-1.56 0-2.642.367-3.688.825zm0 3.174c.68-.201 1.633-.367 2.716-.367 2.459 0 3.596.918 3.596 2.477 0 1.578-1.137 2.496-3.486 2.496a9.8 9.8 0 0 1-2.826-.422zm23.054 7.578c-4.697-.036-7.321-2.018-7.321-5.468 0-3.449 2.715-5.467 7.596-5.467 1.743 0 3.35.257 4.36.495l-.647 2.972c-1.192-.293-2.667-.477-3.787-.477-2.495 0-3.78.918-3.78 2.477 0 1.578 1.285 2.478 3.78 2.478 1.12 0 2.595-.184 3.787-.478l.647 2.991c-1.01.239-2.91.496-4.635.477M67.652 0v13.578h3.633V0zm37.59 3.01v.788c1.504-.605 3.284-.972 4.642-.972 2.642 0 4.587 1.43 4.587 3.394v7.358h-3.633V7.982c0-1.34-.789-2.037-2.312-2.037-.862 0-2.037.275-3.156.789v6.844h-3.633V3.009zm19.551 0h-3.587v13.504h3.633V13.1c.991.385 2.293.66 3.688.66 3.816 0 6.367-2.128 6.367-5.468s-2.551-5.467-6.367-5.467c-1.56 0-2.688.367-3.734.825zm.046 3.173c.679-.201 1.633-.367 2.715-.367 2.459 0 3.597.918 3.597 2.477 0 1.578-1.138 2.496-3.487 2.496a9.8 9.8 0 0 1-2.825-.422zm11.736-3.174h3.615v1.248c1.156-.9 2.734-1.431 4.404-1.431.678 0 1.717.091 1.992.165l-.646 3.266-.159-.035h-.002c-.399-.087-.599-.13-1.039-.13-1.816.018-3.651.623-4.532 1.834v5.652h-3.633zm17.508-.183c-4.569 0-6.936 2.183-6.936 5.467 0 3.285 2.367 5.468 6.936 5.468 4.55 0 6.917-2.183 6.917-5.468 0-3.284-2.367-5.467-6.917-5.467m0 7.945c-1.982 0-3.193-.9-3.193-2.478 0-1.56 1.211-2.477 3.193-2.477 1.963 0 3.174.918 3.174 2.477 0 1.578-1.211 2.478-3.174 2.478" clip-rule="evenodd"/><path d="m83.43 16.409 9.36-2.508.252.936a.646.646 0 0 1-.457.791l-8.113 2.174a.646.646 0 0 1-.792-.457z"/><path d="M86.884 16.821a.323.323 0 0 1 .229-.396l2.184-.585a.323.323 0 0 1 .396.229l.083.312a.646.646 0 0 1-.456.79l-1.56.419a.646.646 0 0 1-.792-.457z"/><path d="m88.133 16.487.624-.168 1.087 4.057-.624.167z"/></g><defs><clipPath id="a"><path fill="#fff" d="M0 0h161v20H0z"/></clipPath></defs></svg>